<svg width="20" height="18" fill="none" xmlns="http://www.w3.org/2000/svg"><path d="M10 17a1.06 1.06 0 01-.695-.261c-.725-.634-1.428-1.232-2.047-1.759a38.052 38.052 0 01-4.472-4.194A6.69 6.69 0 011 6.407a5.615 5.615 0 011.427-3.84A4.84 4.84 0 016.03 1a4.53 4.53 0 012.83.975 5.8 5.8 0 011.142 1.194c.322-.45.707-.852 1.144-1.193A4.53 4.53 0 0113.97 1a4.844 4.844 0 013.6 1.566A5.615 5.615 0 0119 6.406a6.689 6.689 0 01-1.782 4.38 38.045 38.045 0 01-4.469 4.191c-.62.528-1.321 1.126-2.05 1.763-.194.168-.441.26-.697.26v0z" stroke="#000" stroke-width="1.2"/></svg>