<svg width="131" height="26" fill="none" xmlns="http://www.w3.org/2000/svg"><path d="M17.55 16.8c-.72 2.25-2.7 4.5-6.15 4.5-3.93 0-6.9-3-6.9-7.8s2.97-7.8 6.9-7.8c2.67 0 5.1 1.5 6.15 4.35h3.3c-.87-3.75-4.2-7.35-9.45-7.35-5.52 0-10.05 4.35-10.05 10.8 0 6.45 4.53 10.8 10.05 10.8 5.67 0 8.73-4.2 9.45-7.5h-3.3zm15.764 7.5c5.52 0 10.05-4.35 10.05-10.8 0-6.45-4.53-10.8-10.05-10.8-5.52 0-10.05 4.35-10.05 10.8 0 6.45 4.53 10.8 10.05 10.8zm0-18.6c3.93 0 6.9 3 6.9 7.8s-2.97 7.8-6.9 7.8-6.9-3-6.9-7.8 2.97-7.8 6.9-7.8zM46.957 24h13.35v-3h-10.2V3h-3.15v21zm24.15.3c5.52 0 10.05-4.35 10.05-10.8 0-6.45-4.53-10.8-10.05-10.8-5.52 0-10.05 4.35-10.05 10.8 0 6.45 4.53 10.8 10.05 10.8zm0-18.6c3.93 0 6.9 3 6.9 7.8s-2.97 7.8-6.9 7.8-6.9-3-6.9-7.8 2.97-7.8 6.9-7.8zM84.75 24h3.15v-7.5h1.5l7.5 7.5h4.05l-7.5-7.5h.75c3.45 0 6.15-2.67 6.15-6.75S97.65 3 94.2 3h-9.45v21zm3.15-10.5V6h6.15c1.68 0 3.15 1.5 3.15 3.75s-1.47 3.75-3.15 3.75H87.9zm15.312 4.05c0 3.75 3 6.75 8.25 6.75s7.95-2.7 7.95-6.15c0-3.33-1.92-5.1-6.15-5.85l-3.3-.6c-2.28-.45-3.15-1.5-3.15-2.85 0-1.68 1.5-3.15 4.35-3.15 3 0 4.8 1.8 4.8 3.75h3.15c0-3.75-2.7-6.75-7.95-6.75-4.65 0-7.5 2.7-7.5 6.15 0 2.88 1.62 4.95 4.95 5.55l4.05.75c2.4.45 3.6 1.47 3.6 3 0 1.8-1.35 3.15-4.8 3.15-3.12 0-5.1-1.8-5.1-3.75h-3.15z" fill="#1F2020"/><circle cx="127" cy="6" r="4" fill="#1F2020"/></svg>